<?xml version="1.0" standalone="yes"?>
<svg xmlns="http://www.w3.org/2000/svg" version="1.1" width="256" height="256">
  <rect x="0" y="0" width="256" height="256" style="fill:#ffffff;shape-rendering:crispEdges;"/>
  <path x="0" y="0" style="fill:#000000;shape-rendering:crispEdges;" d="M0,0 V12.19 H12.19 V0 H0 Z M12.19,0 V12.19 H24.38 V0 H12.19 Z M24.38,0 V12.19 H36.57 V0 H24.38 Z M36.57,0 V12.19 H48.76 V0 H36.57 Z M48.76,0 V12.19 H60.95 V0 H48.76 Z M60.95,0 V12.19 H73.14 V0 H60.95 Z M73.14,0 V12.19 H85.33 V0 H73.14 Z M170.67,0 V12.19 H182.86 V0 H170.67 Z M182.86,0 V12.19 H195.05 V0 H182.86 Z M195.05,0 V12.19 H207.24 V0 H195.05 Z M207.24,0 V12.19 H219.43 V0 H207.24 Z M219.43,0 V12.19 H231.62 V0 H219.43 Z M231.62,0 V12.19 H243.81 V0 H231.62 Z M243.81,0 V12.19 H256 V0 H243.81 Z M0,12.19 V24.38 H12.19 V12.19 H0 Z M73.14,12.19 V24.38 H85.33 V12.19 H73.14 Z M109.71,12.19 V24.38 H121.90 V12.19 H109.71 Z M134.10,12.19 V24.38 H146.29 V12.19 H134.10 Z M146.29,12.19 V24.38 H158.48 V12.19 H146.29 Z M170.67,12.19 V24.38 H182.86 V12.19 H170.67 Z M243.81,12.19 V24.38 H256 V12.19 H243.81 Z M0,24.38 V36.57 H12.19 V24.38 H0 Z M24.38,24.38 V36.57 H36.57 V24.38 H24.38 Z M36.57,24.38 V36.57 H48.76 V24.38 H36.57 Z M48.76,24.38 V36.57 H60.95 V24.38 H48.76 Z M73.14,24.38 V36.57 H85.33 V24.38 H73.14 Z M109.71,24.38 V36.57 H121.90 V24.38 H109.71 Z M121.90,24.38 V36.57 H134.10 V24.38 H121.90 Z M146.29,24.38 V36.57 H158.48 V24.38 H146.29 Z M170.67,24.38 V36.57 H182.86 V24.38 H170.67 Z M195.05,24.38 V36.57 H207.24 V24.38 H195.05 Z M207.24,24.38 V36.57 H219.43 V24.38 H207.24 Z M219.43,24.38 V36.57 H231.62 V24.38 H219.43 Z M243.81,24.38 V36.57 H256 V24.38 H243.81 Z M0,36.57 V48.76 H12.19 V36.57 H0 Z M24.38,36.57 V48.76 H36.57 V36.57 H24.38 Z M36.57,36.57 V48.76 H48.76 V36.57 H36.57 Z M48.76,36.57 V48.76 H60.95 V36.57 H48.76 Z M73.14,36.57 V48.76 H85.33 V36.57 H73.14 Z M109.71,36.57 V48.76 H121.90 V36.57 H109.71 Z M134.10,36.57 V48.76 H146.29 V36.57 H134.10 Z M170.67,36.57 V48.76 H182.86 V36.57 H170.67 Z M195.05,36.57 V48.76 H207.24 V36.57 H195.05 Z M207.24,36.57 V48.76 H219.43 V36.57 H207.24 Z M219.43,36.57 V48.76 H231.62 V36.57 H219.43 Z M243.81,36.57 V48.76 H256 V36.57 H243.81 Z M0,48.76 V60.95 H12.19 V48.76 H0 Z M24.38,48.76 V60.95 H36.57 V48.76 H24.38 Z M36.57,48.76 V60.95 H48.76 V48.76 H36.57 Z M48.76,48.76 V60.95 H60.95 V48.76 H48.76 Z M73.14,48.76 V60.95 H85.33 V48.76 H73.14 Z M109.71,48.76 V60.95 H121.90 V48.76 H109.71 Z M170.67,48.76 V60.95 H182.86 V48.76 H170.67 Z M195.05,48.76 V60.95 H207.24 V48.76 H195.05 Z M207.24,48.76 V60.95 H219.43 V48.76 H207.24 Z M219.43,48.76 V60.95 H231.62 V48.76 H219.43 Z M243.81,48.76 V60.95 H256 V48.76 H243.81 Z M0,60.95 V73.14 H12.19 V60.95 H0 Z M73.14,60.95 V73.14 H85.33 V60.95 H73.14 Z M97.52,60.95 V73.14 H109.71 V60.95 H97.52 Z M170.67,60.95 V73.14 H182.86 V60.95 H170.67 Z M243.81,60.95 V73.14 H256 V60.95 H243.81 Z M0,73.14 V85.33 H12.19 V73.14 H0 Z M12.19,73.14 V85.33 H24.38 V73.14 H12.19 Z M24.38,73.14 V85.33 H36.57 V73.14 H24.38 Z M36.57,73.14 V85.33 H48.76 V73.14 H36.57 Z M48.76,73.14 V85.33 H60.95 V73.14 H48.76 Z M60.95,73.14 V85.33 H73.14 V73.14 H60.95 Z M73.14,73.14 V85.33 H85.33 V73.14 H73.14 Z M97.52,73.14 V85.33 H109.71 V73.14 H97.52 Z M121.90,73.14 V85.33 H134.10 V73.14 H121.90 Z M146.29,73.14 V85.33 H158.48 V73.14 H146.29 Z M170.67,73.14 V85.33 H182.86 V73.14 H170.67 Z M182.86,73.14 V85.33 H195.05 V73.14 H182.86 Z M195.05,73.14 V85.33 H207.24 V73.14 H195.05 Z M207.24,73.14 V85.33 H219.43 V73.14 H207.24 Z M219.43,73.14 V85.33 H231.62 V73.14 H219.43 Z M231.62,73.14 V85.33 H243.81 V73.14 H231.62 Z M243.81,73.14 V85.33 H256 V73.14 H243.81 Z M134.10,85.33 V97.52 H146.29 V85.33 H134.10 Z M146.29,85.33 V97.52 H158.48 V85.33 H146.29 Z M0,97.52 V109.71 H12.19 V97.52 H0 Z M24.38,97.52 V109.71 H36.57 V97.52 H24.38 Z M48.76,97.52 V109.71 H60.95 V97.52 H48.76 Z M73.14,97.52 V109.71 H85.33 V97.52 H73.14 Z M85.33,97.52 V109.71 H97.52 V97.52 H85.33 Z M121.90,97.52 V109.71 H134.10 V97.52 H121.90 Z M146.29,97.52 V109.71 H158.48 V97.52 H146.29 Z M158.48,97.52 V109.71 H170.67 V97.52 H158.48 Z M182.86,97.52 V109.71 H195.05 V97.52 H182.86 Z M12.19,109.71 V121.90 H24.38 V109.71 H12.19 Z M24.38,109.71 V121.90 H36.57 V109.71 H24.38 Z M48.76,109.71 V121.90 H60.95 V109.71 H48.76 Z M60.95,109.71 V121.90 H73.14 V109.71 H60.95 Z M85.33,109.71 V121.90 H97.52 V109.71 H85.33 Z M97.52,109.71 V121.90 H109.71 V109.71 H97.52 Z M134.10,109.71 V121.90 H146.29 V109.71 H134.10 Z M146.29,109.71 V121.90 H158.48 V109.71 H146.29 Z M158.48,109.71 V121.90 H170.67 V109.71 H158.48 Z M195.05,109.71 V121.90 H207.24 V109.71 H195.05 Z M207.24,109.71 V121.90 H219.43 V109.71 H207.24 Z M231.62,109.71 V121.90 H243.81 V109.71 H231.62 Z M0,121.90 V134.10 H12.19 V121.90 H0 Z M24.38,121.90 V134.10 H36.57 V121.90 H24.38 Z M36.57,121.90 V134.10 H48.76 V121.90 H36.57 Z M60.95,121.90 V134.10 H73.14 V121.90 H60.95 Z M73.14,121.90 V134.10 H85.33 V121.90 H73.14 Z M134.10,121.90 V134.10 H146.29 V121.90 H134.10 Z M182.86,121.90 V134.10 H195.05 V121.90 H182.86 Z M231.62,121.90 V134.10 H243.81 V121.90 H231.62 Z M0,134.10 V146.29 H12.19 V134.10 H0 Z M12.19,134.10 V146.29 H24.38 V134.10 H12.19 Z M24.38,134.10 V146.29 H36.57 V134.10 H24.38 Z M36.57,134.10 V146.29 H48.76 V134.10 H36.57 Z M85.33,134.10 V146.29 H97.52 V134.10 H85.33 Z M97.52,134.10 V146.29 H109.71 V134.10 H97.52 Z M158.48,134.10 V146.29 H170.67 V134.10 H158.48 Z M170.67,134.10 V146.29 H182.86 V134.10 H170.67 Z M182.86,134.10 V146.29 H195.05 V134.10 H182.86 Z M195.05,134.10 V146.29 H207.24 V134.10 H195.05 Z M207.24,134.10 V146.29 H219.43 V134.10 H207.24 Z M219.43,134.10 V146.29 H231.62 V134.10 H219.43 Z M243.81,134.10 V146.29 H256 V134.10 H243.81 Z M0,146.29 V158.48 H12.19 V146.29 H0 Z M12.19,146.29 V158.48 H24.38 V146.29 H12.19 Z M24.38,146.29 V158.48 H36.57 V146.29 H24.38 Z M60.95,146.29 V158.48 H73.14 V146.29 H60.95 Z M73.14,146.29 V158.48 H85.33 V146.29 H73.14 Z M85.33,146.29 V158.48 H97.52 V146.29 H85.33 Z M97.52,146.29 V158.48 H109.71 V146.29 H97.52 Z M134.10,146.29 V158.48 H146.29 V146.29 H134.10 Z M158.48,146.29 V158.48 H170.67 V146.29 H158.48 Z M170.67,146.29 V158.48 H182.86 V146.29 H170.67 Z M195.05,146.29 V158.48 H207.24 V146.29 H195.05 Z M109.71,158.48 V170.67 H121.90 V158.48 H109.71 Z M121.90,158.48 V170.67 H134.10 V158.48 H121.90 Z M146.29,158.48 V170.67 H158.48 V158.48 H146.29 Z M158.48,158.48 V170.67 H170.67 V158.48 H158.48 Z M182.86,158.48 V170.67 H195.05 V158.48 H182.86 Z M195.05,158.48 V170.67 H207.24 V158.48 H195.05 Z M219.43,158.48 V170.67 H231.62 V158.48 H219.43 Z M243.81,158.48 V170.67 H256 V158.48 H243.81 Z M0,170.67 V182.86 H12.19 V170.67 H0 Z M12.19,170.67 V182.86 H24.38 V170.67 H12.19 Z M24.38,170.67 V182.86 H36.57 V170.67 H24.38 Z M36.57,170.67 V182.86 H48.76 V170.67 H36.57 Z M48.76,170.67 V182.86 H60.95 V170.67 H48.76 Z M60.95,170.67 V182.86 H73.14 V170.67 H60.95 Z M73.14,170.67 V182.86 H85.33 V170.67 H73.14 Z M97.52,170.67 V182.86 H109.71 V170.67 H97.52 Z M134.10,170.67 V182.86 H146.29 V170.67 H134.10 Z M158.48,170.67 V182.86 H170.67 V170.67 H158.48 Z M170.67,170.67 V182.86 H182.86 V170.67 H170.67 Z M182.86,170.67 V182.86 H195.05 V170.67 H182.86 Z M195.05,170.67 V182.86 H207.24 V170.67 H195.05 Z M231.62,170.67 V182.86 H243.81 V170.67 H231.62 Z M0,182.86 V195.05 H12.19 V182.86 H0 Z M73.14,182.86 V195.05 H85.33 V182.86 H73.14 Z M109.71,182.86 V195.05 H121.90 V182.86 H109.71 Z M121.90,182.86 V195.05 H134.10 V182.86 H121.90 Z M134.10,182.86 V195.05 H146.29 V182.86 H134.10 Z M146.29,182.86 V195.05 H158.48 V182.86 H146.29 Z M207.24,182.86 V195.05 H219.43 V182.86 H207.24 Z M219.43,182.86 V195.05 H231.62 V182.86 H219.43 Z M231.62,182.86 V195.05 H243.81 V182.86 H231.62 Z M243.81,182.86 V195.05 H256 V182.86 H243.81 Z M0,195.05 V207.24 H12.19 V195.05 H0 Z M24.38,195.05 V207.24 H36.57 V195.05 H24.38 Z M36.57,195.05 V207.24 H48.76 V195.05 H36.57 Z M48.76,195.05 V207.24 H60.95 V195.05 H48.76 Z M73.14,195.05 V207.24 H85.33 V195.05 H73.14 Z M97.52,195.05 V207.24 H109.71 V195.05 H97.52 Z M109.71,195.05 V207.24 H121.90 V195.05 H109.71 Z M146.29,195.05 V207.24 H158.48 V195.05 H146.29 Z M170.67,195.05 V207.24 H182.86 V195.05 H170.67 Z M195.05,195.05 V207.24 H207.24 V195.05 H195.05 Z M219.43,195.05 V207.24 H231.62 V195.05 H219.43 Z M0,207.24 V219.43 H12.19 V207.24 H0 Z M24.38,207.24 V219.43 H36.57 V207.24 H24.38 Z M36.57,207.24 V219.43 H48.76 V207.24 H36.57 Z M48.76,207.24 V219.43 H60.95 V207.24 H48.76 Z M73.14,207.24 V219.43 H85.33 V207.24 H73.14 Z M170.67,207.24 V219.43 H182.86 V207.24 H170.67 Z M207.24,207.24 V219.43 H219.43 V207.24 H207.24 Z M219.43,207.24 V219.43 H231.62 V207.24 H219.43 Z M231.62,207.24 V219.43 H243.81 V207.24 H231.62 Z M0,219.43 V231.62 H12.19 V219.43 H0 Z M24.38,219.43 V231.62 H36.57 V219.43 H24.38 Z M36.57,219.43 V231.62 H48.76 V219.43 H36.57 Z M48.76,219.43 V231.62 H60.95 V219.43 H48.76 Z M73.14,219.43 V231.62 H85.33 V219.43 H73.14 Z M97.52,219.43 V231.62 H109.71 V219.43 H97.52 Z M109.71,219.43 V231.62 H121.90 V219.43 H109.71 Z M134.10,219.43 V231.62 H146.29 V219.43 H134.10 Z M158.48,219.43 V231.62 H170.67 V219.43 H158.48 Z M182.86,219.43 V231.62 H195.05 V219.43 H182.86 Z M195.05,219.43 V231.62 H207.24 V219.43 H195.05 Z M243.81,219.43 V231.62 H256 V219.43 H243.81 Z M0,231.62 V243.81 H12.19 V231.62 H0 Z M73.14,231.62 V243.81 H85.33 V231.62 H73.14 Z M109.71,231.62 V243.81 H121.90 V231.62 H109.71 Z M134.10,231.62 V243.81 H146.29 V231.62 H134.10 Z M146.29,231.62 V243.81 H158.48 V231.62 H146.29 Z M158.48,231.62 V243.81 H170.67 V231.62 H158.48 Z M182.86,231.62 V243.81 H195.05 V231.62 H182.86 Z M219.43,231.62 V243.81 H231.62 V231.62 H219.43 Z M243.81,231.62 V243.81 H256 V231.62 H243.81 Z M0,243.81 V256 H12.19 V243.81 H0 Z M12.19,243.81 V256 H24.38 V243.81 H12.19 Z M24.38,243.81 V256 H36.57 V243.81 H24.38 Z M36.57,243.81 V256 H48.76 V243.81 H36.57 Z M48.76,243.81 V256 H60.95 V243.81 H48.76 Z M60.95,243.81 V256 H73.14 V243.81 H60.95 Z M73.14,243.81 V256 H85.33 V243.81 H73.14 Z M97.52,243.81 V256 H109.71 V243.81 H97.52 Z M146.29,243.81 V256 H158.48 V243.81 H146.29 Z M158.48,243.81 V256 H170.67 V243.81 H158.48 Z M219.43,243.81 V256 H231.62 V243.81 H219.43 Z " /></svg>